# xmcd CD database file
#
# Track frame offsets:
#	150
#	10972
#	22297
#	33487
#	44562
#	56945
#	66627
#	76610
#	84692
#	94445
#	105210
#	112592
#
# Disc length: 1617 seconds
#
# Revision: 0
# Processed by: cddbd v1.4PL0 Copyright (c) Steve Scherf et al.
# Submitted via: CDex 1.50Beta7
#
DISCID=9c064f0c
DTITLE=Buck Owens - Buckaroo   CD 2 of 3
DYEAR=1999
DGENRE=Country
TTITLE0=Act Naturally
TTITLE1=Save The Last Dance For Me
TTITLE2=Excuse Me  (I Think I've Got A Heartache)
TTITLE3=Above And Beyond
TTITLE4=Under Your Spell Again
TTITLE5=Second Fiddle
TTITLE6=I Know What It Means
TTITLE7=When I Hold You
TTITLE8=Country Girl
TTITLE9=I Will Love You Always
TTITLE10=I'm Gonna Blow
TTITLE11=Higher And Higher And Higher
EXTD=YEAR: 1999
EXTT0=
EXTT1=
EXTT2=
EXTT3=
EXTT4=
EXTT5=
EXTT6=
EXTT7=
EXTT8=
EXTT9=
EXTT10=
EXTT11=
PLAYORDER=
